<svg width="21" height="12" viewBox="0 0 21 12" fill="none" xmlns="http://www.w3.org/2000/svg">
<path d="M11.6436 10.9893L20.6758 2.43282C20.8848 2.23492 21 1.97074 21 1.68905C21 1.40736 20.8848 1.14317 20.6758 0.945272L20.0108 0.315143C19.5774 -0.0948866 18.8732 -0.0948866 18.4405 0.315143L10.8559 7.50027L3.26282 0.30717C3.05375 0.109267 2.77504 -7.54677e-07 2.47785 -7.66983e-07C2.18033 -7.79303e-07 1.90163 0.109267 1.69239 0.307169L1.02756 0.937298C0.818485 1.13536 0.703308 1.39938 0.703308 1.68107C0.703308 1.96276 0.818485 2.22694 1.02756 2.42485L10.0679 10.9893C10.2777 11.1877 10.5577 11.2967 10.8554 11.296C11.1542 11.2967 11.4341 11.1877 11.6436 10.9893Z" fill="white"/>
</svg>
