<svg width="22" height="22" viewBox="0 0 22 22" fill="none" xmlns="http://www.w3.org/2000/svg">
<path d="M20.0774 0.238525H1.56055C0.698638 0.238525 0 0.937164 0 1.79907V20.316C0 21.1779 0.698638 21.8765 1.56055 21.8765H11.5586V13.5087H8.74817V10.2334H11.5586V7.82301C11.5586 5.0278 13.265 3.50638 15.7585 3.50638C16.9527 3.50638 17.979 3.59536 18.2782 3.63514V6.55665H16.5588C15.2022 6.55665 14.9395 7.2013 14.9395 8.1474V10.2334H18.1831L17.7605 13.5087H14.9395V21.8765H20.0774C20.9393 21.8765 21.638 21.1779 21.638 20.316V1.79907C21.638 0.937164 20.9393 0.238525 20.0774 0.238525V0.238525Z" fill="#E2AB3D"/>
</svg>
