<svg width="23" height="22" viewBox="0 0 23 22" fill="none" xmlns="http://www.w3.org/2000/svg">
<path d="M1.78665 1.74078C0.0914837 3.50156 0.438426 5.372 0.438426 11.0543C0.438426 15.7731 -0.384889 20.5036 3.92403 21.6172C5.26956 21.9632 17.1914 21.9632 18.5352 21.6154C20.3292 21.1525 21.7889 19.6973 21.9884 17.16C22.0163 16.8058 22.0163 5.30908 21.9875 4.94776C21.7754 2.24502 20.1117 0.687373 17.9195 0.371888C17.4171 0.299084 17.3164 0.277513 14.7386 0.273019C5.59493 0.277513 3.59057 -0.129651 1.78665 1.74078V1.74078Z" fill="#E2AB3D"/>
<path d="M11.2229 3.09436C7.95928 3.09436 4.86017 2.80404 3.67643 5.84204C3.18747 7.09678 3.25848 8.72634 3.25848 11.0597C3.25848 13.1072 3.19287 15.0315 3.67643 16.2764C4.85747 19.3162 7.98176 19.025 11.2211 19.025C14.3463 19.025 17.5685 19.3503 18.7666 16.2764C19.2565 15.0091 19.1846 13.4038 19.1846 11.0597C19.1846 7.94796 19.3563 5.93911 17.8472 4.4309C16.3192 2.90291 14.2528 3.09436 11.2193 3.09436H11.2229ZM10.5092 4.52977C17.3169 4.51898 18.1833 3.76218 17.7051 14.2756C17.5353 17.994 14.704 17.586 11.2238 17.586C4.87814 17.586 4.69569 17.4044 4.69569 11.0561C4.69569 4.63403 5.19902 4.53336 10.5092 4.52797V4.52977ZM15.4743 5.85192C14.9467 5.85192 14.5188 6.27976 14.5188 6.80736C14.5188 7.33497 14.9467 7.7628 15.4743 7.7628C16.0019 7.7628 16.4297 7.33497 16.4297 6.80736C16.4297 6.27976 16.0019 5.85192 15.4743 5.85192ZM11.2229 6.96915C8.96416 6.96915 7.13327 8.80094 7.13327 11.0597C7.13327 13.3184 8.96416 15.1493 11.2229 15.1493C13.4816 15.1493 15.3116 13.3184 15.3116 11.0597C15.3116 8.80094 13.4816 6.96915 11.2229 6.96915ZM11.2229 8.40456C14.7328 8.40456 14.7373 13.7148 11.2229 13.7148C7.71391 13.7148 7.70852 8.40456 11.2229 8.40456Z" fill="black"/>
</svg>
