<svg width="91" height="80" viewBox="0 0 91 80" fill="none" xmlns="http://www.w3.org/2000/svg">
<path d="M90.6269 32.8391C90.6268 31.7358 90.2985 30.6573 89.6836 29.74C89.0687 28.8227 88.1948 28.1077 87.1724 27.6854C86.1499 27.2632 85.0248 27.1527 83.9394 27.3678C82.8539 27.583 81.8568 28.1142 81.0742 28.8942L79.7895 30.1749H66.4411L64.7058 28.1949C58.824 21.493 51.5731 16.122 43.439 12.4422C35.3049 8.76229 26.4756 6.85853 17.5431 6.85852C7.37726 6.85957 0 19.7295 0 37.4607C0 50.1997 3.81931 60.3971 9.72837 65.1477H0V66.6051C0.00389718 70.0821 1.39116 73.4157 3.85743 75.8743C6.3237 78.333 9.66756 79.716 13.1554 79.7199H77.471C80.9588 79.716 84.3027 78.333 86.7689 75.8743C89.2352 73.4157 90.6225 70.0821 90.6264 66.6051V65.1477H87.5554C87.3184 64.0359 86.8208 62.9958 86.1035 62.1124C86.2908 61.1715 86.2874 60.2028 86.0937 59.2632C85.8999 58.3236 85.5196 57.4321 84.9752 56.6412C84.4307 55.8503 83.7331 55.176 82.9234 54.6578C82.1136 54.1396 81.2081 53.7881 80.2601 53.624C79.953 51.9515 79.0676 50.4391 77.758 49.3499C76.4483 48.2606 74.7972 47.6634 73.0916 47.6619C71.3861 47.6604 69.7339 48.2548 68.4223 49.3417C67.1108 50.4286 66.2227 51.9394 65.9126 53.6114C65.1868 53.7526 64.4868 54.0037 63.8371 54.3558C62.8307 53.1383 61.6709 52.0554 60.3864 51.1338C61.8914 49.7263 63.3517 48.2663 64.7031 46.7271L66.4385 44.7471H79.7869L81.0715 46.0278C82.1252 47.0535 83.5419 47.6239 85.0146 47.6152C86.4873 47.6064 87.8971 47.0194 88.9385 45.9812C89.9798 44.9431 90.5687 43.5376 90.5774 42.0695C90.5862 40.6014 90.0141 39.189 88.9852 38.1386L88.3058 37.4613L88.9852 36.784C89.5064 36.2671 89.9197 35.6523 90.2009 34.9752C90.4822 34.298 90.6259 33.572 90.6237 32.8391H90.6269ZM2.92324 37.4607C2.92324 21.4165 9.07105 9.77379 17.5421 9.77379C26.0131 9.77379 32.1609 21.4165 32.1609 37.4607C32.1609 53.505 26.0126 65.1477 17.5421 65.1477C9.07158 65.1477 2.92324 53.5044 2.92324 37.4607ZM77.471 76.8056H13.1554C10.6954 76.8027 8.31852 75.9176 6.45895 74.312C4.59937 72.7065 3.38117 70.4877 3.02684 68.0609H87.5985C87.2443 70.4874 86.0262 72.7058 84.1669 74.3111C82.3076 75.9163 79.9311 76.8012 77.4715 76.8041L77.471 76.8056ZM39.504 65.1477C39.6866 62.5762 40.8401 60.1693 42.732 58.412C44.624 56.6546 47.1137 55.6775 49.6996 55.6775C52.2855 55.6775 54.7753 56.6546 56.6672 58.412C58.5592 60.1693 59.7127 62.5762 59.8952 65.1477H39.504ZM73.0874 62.2335C73.9913 62.2364 74.8721 62.5181 75.609 63.0399C76.3459 63.5616 76.9028 64.2979 77.2033 65.1477H68.9715C69.2716 64.2978 69.8283 63.5614 70.565 63.0396C71.3018 62.5178 72.1826 62.2362 73.0864 62.2335H73.0874ZM80.248 65.1477C80.0462 64.1758 79.6458 63.2557 79.0717 62.4447C79.4995 62.3068 79.9462 62.2361 80.3958 62.2351C81.2996 62.238 82.1804 62.5197 82.9174 63.0414C83.6543 63.5632 84.2112 64.2995 84.5117 65.1493L80.248 65.1477ZM83.2286 59.8886C82.1851 59.4492 81.0528 59.2595 79.9226 59.3346C78.7923 59.4097 77.6953 59.7475 76.7195 60.3211C76.1071 59.9617 75.4447 59.6946 74.7539 59.5284C75.0298 58.5958 75.6107 57.782 76.4041 57.2165C77.1976 56.651 78.1579 56.3663 79.1324 56.4078C80.1068 56.4492 81.0394 56.8143 81.7817 57.4451C82.5239 58.0758 83.0333 58.9359 83.2286 59.8886ZM73.0874 50.5755C74.0285 50.5786 74.9435 50.8841 75.6965 51.4467C76.4496 52.0092 77.0007 52.7989 77.268 53.6984C75.5924 54.0945 74.1115 55.0689 73.0874 56.4491C72.0629 55.0693 70.5822 54.0951 68.9069 53.6984C69.1741 52.7992 69.725 52.0099 70.4778 51.4475C71.2306 50.885 72.1451 50.5795 73.0858 50.5761L73.0874 50.5755ZM67.2404 56.4045C68.1815 56.4076 69.0964 56.7131 69.8495 57.2757C70.6026 57.8382 71.1537 58.6278 71.421 59.5274C69.8973 59.8901 68.5316 60.7332 67.527 61.9315C67.1218 60.1197 66.4395 58.3807 65.504 56.7757C66.051 56.535 66.6415 56.4087 67.2394 56.4045H67.2404ZM65.0113 65.1477H62.8185C62.6405 61.7986 61.1805 58.6451 58.7396 56.3372C56.2986 54.0293 53.0625 52.7427 49.6983 52.7427C46.3341 52.7427 43.0981 54.0293 40.6571 56.3372C38.2161 58.6451 36.7562 61.7986 36.5782 65.1477H34.3853C34.5685 61.2221 36.2617 57.5179 39.1132 54.8044C41.9646 52.091 45.755 50.577 49.697 50.577C53.639 50.577 57.4294 52.091 60.2808 54.8044C63.1323 57.5179 64.8255 61.2221 65.0087 65.1477H65.0113ZM57.7918 49.5706C55.1958 48.2796 52.3279 47.6256 49.4271 47.6631C46.5263 47.7006 43.6764 48.4285 41.1148 49.7861C38.5532 51.1437 36.3541 53.0918 34.7005 55.4681C33.0469 57.8444 31.9867 60.5802 31.6083 63.4476C29.8046 63.8831 27.9834 64.2343 26.1446 64.5013C31.6083 59.497 35.081 49.623 35.081 37.4581C35.081 25.2933 31.6041 15.4119 26.1383 10.4123C40.2272 12.4486 53.123 19.4351 62.5014 30.1125L64.3156 32.1801V42.7403L62.5014 44.8079C61.0215 46.4806 59.4494 48.07 57.7923 49.5685L57.7918 49.5706ZM86.9206 40.1988C87.4127 40.7004 87.6864 41.3752 87.6825 42.0768C87.6786 42.7783 87.3973 43.45 86.8997 43.9461C86.402 44.4422 85.7283 44.7226 85.0245 44.7266C84.3208 44.7305 83.6439 44.4575 83.1408 43.967L80.9995 41.8323H67.2394V33.0892H81L83.1413 30.9545C83.6444 30.4639 84.3213 30.191 85.0251 30.1949C85.7288 30.1989 86.4026 30.4793 86.9002 30.9754C87.3978 31.4715 87.6791 32.1432 87.683 32.8447C87.687 33.5463 87.4132 34.2211 86.9212 34.7227L84.1746 37.4607L86.9206 40.1988Z" fill="#CC9933"/>
<path d="M17.5405 12.6885C10.5461 12.6885 5.84705 22.6443 5.84705 37.4612C5.84705 52.2782 10.5461 62.2339 17.5411 62.2339C24.536 62.2339 29.2346 52.2782 29.2346 37.4612C29.2346 22.6443 24.5355 12.6885 17.5405 12.6885ZM17.5405 59.3192C11.8444 59.3192 8.77029 48.0565 8.77029 37.4586C8.77029 26.8607 11.8444 15.598 17.5405 15.598C23.2366 15.598 26.3108 26.8607 26.3108 37.4586C26.3108 48.0565 23.2372 59.3192 17.5405 59.3192Z" fill="#CC9933"/>
<path d="M19.0023 33.3576V18.517H16.0785V33.3576C15.2244 33.6546 14.484 34.2092 13.9602 34.9444C13.4363 35.6797 13.1549 36.5592 13.1549 37.461C13.1549 38.3629 13.4363 39.2424 13.9602 39.9776C14.484 40.7129 15.2244 41.2675 16.0785 41.5645V56.4051H19.0018V41.5645C19.856 41.2675 20.5963 40.7129 21.1201 39.9776C21.644 39.2424 21.9254 38.3629 21.9254 37.461C21.9254 36.5592 21.644 35.6797 21.1201 34.9444C20.5963 34.2092 19.856 33.6546 19.0018 33.3576H19.0023ZM17.5404 38.9181C17.2513 38.9181 16.9687 38.8327 16.7282 38.6725C16.4878 38.5124 16.3005 38.2848 16.1898 38.0185C16.0792 37.7522 16.0502 37.4591 16.1066 37.1764C16.163 36.8937 16.3023 36.6341 16.5067 36.4302C16.7112 36.2264 16.9716 36.0876 17.2552 36.0314C17.5388 35.9752 17.8327 36.004 18.0999 36.1143C18.367 36.2246 18.5953 36.4114 18.7559 36.6511C18.9166 36.8907 19.0023 37.1725 19.0023 37.4608C19.002 37.8472 18.8479 38.2177 18.5738 38.491C18.2997 38.7642 17.9281 38.9179 17.5404 38.9181Z" fill="#CC9933"/>
<path d="M88.7364 8.74367C88.4079 8.41769 88.1474 8.03001 87.97 7.60305C87.7926 7.17608 87.7019 6.7183 87.7031 6.25618V6.00559C87.7018 5.54345 87.7924 5.08563 87.9698 4.65864C88.1472 4.23166 88.4078 3.844 88.7364 3.5181L90.1983 2.06073L88.1312 0.000488281L86.6682 1.45786C86.0671 2.05368 85.5905 2.76248 85.2661 3.54321C84.9417 4.32393 84.7759 5.16106 84.7783 6.00612V6.2567C84.7759 7.10176 84.9417 7.93889 85.2661 8.71961C85.5905 9.50034 86.0671 10.2091 86.6682 10.805C86.9968 11.1309 87.2574 11.5186 87.4347 11.9456C87.6121 12.3725 87.7028 12.8303 87.7015 13.2925V13.543C87.7029 14.0052 87.6123 14.463 87.4349 14.89C87.2575 15.317 86.9969 15.7046 86.6682 16.0305L83.745 18.9448L85.8121 21.0055L88.7354 18.0913C89.3365 17.4955 89.8131 16.7867 90.1375 16.006C90.4619 15.2252 90.6277 14.3881 90.6253 13.543V13.2925C90.6277 12.4474 90.4619 11.6103 90.1375 10.8295C89.8131 10.0488 89.3365 9.34002 88.7354 8.7442L88.7364 8.74367Z" fill="#CC9933"/>
<path d="M76.4361 16.0295L73.5128 18.9437L75.58 21.0045L78.5032 18.0903C79.1043 17.4945 79.5809 16.7857 79.9053 16.0049C80.2297 15.2242 80.3955 14.3871 80.3931 13.542V13.2914C80.3955 12.4464 80.2297 11.6092 79.9053 10.8285C79.5809 10.0478 79.1043 9.33899 78.5032 8.74317C78.1746 8.4172 77.9141 8.02952 77.7367 7.60256C77.5594 7.17559 77.4687 6.7178 77.4699 6.25567V6.00508C77.4685 5.54294 77.5592 5.08511 77.7366 4.65813C77.9139 4.23114 78.1745 3.84348 78.5032 3.51759L79.9651 2.06021L77.8995 0.000488281L76.4376 1.45786C75.8365 2.05369 75.3599 2.76249 75.0355 3.54322C74.7111 4.32394 74.5453 5.16107 74.5477 6.00613V6.25672C74.5453 7.10177 74.7111 7.93891 75.0355 8.71963C75.3599 9.50036 75.8365 10.2092 76.4376 10.805C76.7662 11.131 77.0267 11.5186 77.2041 11.9456C77.3814 12.3726 77.4721 12.8304 77.4709 13.2925V13.5431C77.4718 14.0051 77.3808 14.4628 77.2031 14.8896C77.0255 15.3163 76.7648 15.7038 76.4361 16.0295Z" fill="#CC9933"/>
<path d="M66.204 16.0295L63.2808 18.9437L65.3479 21.0045L68.2711 18.0903C68.8722 17.4944 69.3488 16.7856 69.6732 16.0049C69.9976 15.2242 70.1634 14.3871 70.161 13.542V13.2914C70.1634 12.4464 69.9976 11.6092 69.6732 10.8285C69.3488 10.0478 68.8722 9.33899 68.2711 8.74317C67.9425 8.4172 67.682 8.02952 67.5046 7.60256C67.3273 7.17559 67.2366 6.7178 67.2378 6.25567V6.00508C67.2365 5.54294 67.3271 5.08511 67.5045 4.65813C67.6819 4.23114 67.9424 3.84348 68.2711 3.51759L69.733 2.06021L67.6675 0.000488281L66.2056 1.45786C65.6045 2.05369 65.1279 2.76249 64.8035 3.54322C64.4791 4.32394 64.3132 5.16107 64.3156 6.00613V6.25672C64.3132 7.10177 64.4791 7.93891 64.8035 8.71963C65.1279 9.50036 65.6045 10.2092 66.2056 10.805C66.5342 11.131 66.7946 11.5186 66.972 11.9456C67.1494 12.3726 67.2401 12.8304 67.2389 13.2925V13.5431C67.2397 14.0051 67.1487 14.4628 66.9711 14.8896C66.7934 15.3163 66.5327 15.7038 66.204 16.0295Z" fill="#CC9933"/>
<path d="M45.7417 20.4016L42.3899 23.7431L39.0386 20.4016L36.9714 22.4624L40.3233 25.8039L36.9714 29.1454L39.0386 31.2061L42.3904 27.8646L45.7422 31.2061L47.8094 29.1454L44.4576 25.8039L47.8094 22.4624L45.7417 20.4016Z" fill="#CC9933"/>
<path d="M58.8972 33.5164L55.5454 36.8578L52.1941 33.5164L50.127 35.5771L53.4788 38.9186L50.127 42.2601L52.1941 44.3209L55.5459 40.9794L58.8977 44.3209L60.9649 42.2601L57.6131 38.9186L60.9649 35.5771L58.8972 33.5164Z" fill="#CC9933"/>
</svg>
