<svg width="60" height="80" viewBox="0 0 60 80" fill="none" xmlns="http://www.w3.org/2000/svg">
<path d="M55.1146 36.729C56.0216 35.7797 56.5245 34.5171 56.5176 33.2061C56.9999 32.7312 57.3827 32.1655 57.6441 31.5419C57.9054 30.9183 58.0399 30.2492 58.0399 29.5734C58.0399 28.8976 57.9054 28.2285 57.6441 27.605C57.3827 26.9814 56.9999 26.4157 56.5176 25.9408C56.5236 25.2648 56.394 24.5945 56.1365 23.9692C55.8789 23.3438 55.4986 22.7761 55.0179 22.2994C54.0392 21.3492 52.7297 20.8135 51.3637 20.8043C50.8874 20.3237 50.3201 19.942 49.6947 19.6816C49.0693 19.4212 48.3983 19.287 47.7205 19.287C47.0428 19.287 46.3718 19.4212 45.7464 19.6816C45.121 19.942 44.5537 20.3237 44.0774 20.8043C42.7097 20.8027 41.3967 21.3401 40.4248 22.2994C39.944 22.7764 39.5637 23.3444 39.3061 23.97C39.0486 24.5956 38.919 25.2661 38.925 25.9423C38.9003 25.967 38.8835 25.9947 38.8588 26.022C37.1282 25.882 35.264 25.7871 33.3326 25.7447L36.6681 5.7965C36.8156 4.89434 37.2809 4.07415 37.9804 3.48317C38.6799 2.89219 39.5678 2.56911 40.4847 2.57193H52.8808V3.17455e-05H40.4847C38.9567 -0.00476149 37.4768 0.533383 36.3108 1.51793C35.1447 2.50248 34.3687 3.86901 34.1219 5.37239L30.7222 25.7174C28.593 25.7211 26.7162 25.7698 25.0561 25.8537L15.6432 13.9075C16.3769 12.8417 16.7695 11.5792 16.7691 10.2866C18.4783 10.2839 20.1168 9.60571 21.3253 8.40061C22.5337 7.19551 23.2135 5.56187 23.2156 3.85788V3.17455e-05H0V21.8606H3.86926C5.35525 21.8588 6.79516 21.3463 7.94621 20.4093C9.09725 19.4724 9.88901 18.1685 10.188 16.7174H10.3184C11.5439 16.7144 12.7428 16.3609 13.7727 15.6988L21.9509 26.0786C15.7458 26.6663 13.6549 27.871 13.0849 28.8948L2.5767 41.9802V45.1739C2.56678 57.7952 7.28607 69.9652 15.8094 79.2979L16.1943 79.7173H45.7107L46.0941 79.2979C54.6174 69.9652 59.3367 57.7953 59.3268 45.1739V41.9818L55.1146 36.729ZM20.6362 3.85788C20.6348 4.88048 20.2267 5.86079 19.5014 6.58388C18.7761 7.30697 17.7927 7.71381 16.767 7.7152H15.8057L6.34816 2.57193H20.6362V3.85788ZM3.86926 19.2872H2.57933V6.3286L7.71013 15.7061C7.64238 16.676 7.20887 17.5845 6.49674 18.2488C5.78461 18.9131 4.84665 19.2841 3.87137 19.2872H3.86926ZM10.3179 14.1439H9.792L4.52238 4.50845L14.1876 9.76496V10.2892C14.1856 11.3114 13.7771 12.2912 13.0517 13.0137C12.3263 13.7362 11.3433 14.1426 10.3179 14.1439ZM14.3869 31.3828C16.4136 32.4601 20.9986 33.431 30.9546 33.431C33.7175 33.431 36.4235 33.323 38.8593 33.1264C38.884 33.1511 38.9009 33.1815 38.9256 33.2061C38.9196 33.8821 39.0492 34.5524 39.3067 35.1777C39.5643 35.803 39.9446 36.3707 40.4253 36.8475C40.9057 37.3238 41.4755 37.701 42.1023 37.9576C42.729 38.2141 43.4004 38.345 44.0779 38.3426C44.5544 38.8233 45.1218 39.205 45.7473 39.4655C46.3728 39.726 47.044 39.8602 47.7219 39.8602C48.3998 39.8602 49.0709 39.726 49.6964 39.4655C50.3219 39.205 50.8894 38.8233 51.3658 38.3426C51.8867 38.3293 52.4031 38.2419 52.8992 38.0831L56.7106 42.8316C56.6357 43.8748 56.2414 44.87 55.5809 45.6826C54.9204 46.4952 54.0257 47.0862 53.0175 47.3755C52.0094 47.6649 50.9364 47.6389 49.9436 47.3008C48.9508 46.9628 48.086 46.329 47.466 45.4853L46.4332 44.1018L45.3994 45.4858C44.9254 46.1332 44.3047 46.6599 43.5879 47.023C42.871 47.3862 42.0784 47.5754 41.2743 47.5754C40.4703 47.5754 39.6776 47.3862 38.9608 47.023C38.244 46.6599 37.6233 46.1332 37.1492 45.4858L36.1154 44.1018L35.0816 45.4858C34.6075 46.1332 33.9868 46.6599 33.27 47.023C32.5532 47.3862 31.7605 47.5754 30.9565 47.5754C30.1524 47.5754 29.3597 47.3862 28.6429 47.023C27.9261 46.6599 27.3054 46.1332 26.8314 45.4858L25.7975 44.1018L24.7637 45.4858C24.2896 46.1332 23.669 46.6599 22.9521 47.023C22.2353 47.3862 21.4426 47.5754 20.6386 47.5754C19.8346 47.5754 19.0419 47.3862 18.3251 47.023C17.6082 46.6599 16.9876 46.1332 16.5135 45.4858L15.4797 44.1018L14.4458 45.4858C13.8261 46.3306 12.961 46.9653 11.9675 47.3039C10.9741 47.6425 9.90029 47.6687 8.89142 47.379C7.88256 47.0892 6.98732 46.4975 6.32685 45.6839C5.66637 44.8703 5.27254 43.8741 5.19863 42.83L14.3869 31.3828ZM41.029 27.5224L41.6443 27.0647L41.5349 26.3088C41.4727 25.9135 41.505 25.5092 41.6292 25.1287C41.7535 24.7483 41.9661 24.4025 42.2498 24.1195C42.5335 23.8365 42.8803 23.6243 43.2619 23.5002C43.6434 23.3762 44.049 23.3437 44.4455 23.4056L45.2038 23.5146L45.6629 22.9012C45.9085 22.5915 46.2212 22.3412 46.5777 22.1691C46.9341 21.997 47.325 21.9076 47.7211 21.9076C48.1171 21.9076 48.508 21.997 48.8645 22.1691C49.2209 22.3412 49.5337 22.5915 49.7793 22.9012L50.2384 23.5146L50.9966 23.4056C51.3931 23.3435 51.7987 23.3757 52.1803 23.4996C52.562 23.6235 52.9088 23.8354 53.1927 24.1183C53.4766 24.4011 53.6894 24.7468 53.8139 25.1272C53.9383 25.5076 53.9708 25.9119 53.9088 26.3072L53.7995 27.0631L54.4147 27.5208C54.7388 27.7568 55.0025 28.0657 55.1843 28.4224C55.3661 28.7791 55.4608 29.1736 55.4608 29.5737C55.4608 29.9738 55.3661 30.3683 55.1843 30.725C55.0025 31.0817 54.7388 31.3906 54.4147 31.6266L53.7995 32.0843L53.9088 32.8402C53.9711 33.2356 53.9388 33.6401 53.8145 34.0207C53.6902 34.4013 53.4774 34.7472 53.1935 35.0302C52.9096 35.3133 52.5626 35.5254 52.1808 35.6493C51.799 35.7733 51.3933 35.8055 50.9966 35.7434L50.2384 35.6344L49.7793 36.2477C49.5337 36.5575 49.2209 36.8078 48.8645 36.9799C48.508 37.1519 48.1171 37.2413 47.7211 37.2413C47.325 37.2413 46.9341 37.1519 46.5777 36.9799C46.2212 36.8078 45.9085 36.5575 45.6629 36.2477L45.2038 35.6344L44.4455 35.7434C44.049 35.8055 43.6434 35.7732 43.2618 35.6494C42.8802 35.5255 42.5333 35.3135 42.2494 35.0307C41.9656 34.7479 41.7527 34.4022 41.6283 34.0218C41.5038 33.6414 41.4713 33.2371 41.5333 32.8418L41.6427 32.0858L41.0274 31.6282C40.7035 31.3921 40.44 31.0831 40.2584 30.7264C40.0767 30.3697 39.9821 29.9753 39.9821 29.5753C39.9821 29.1752 40.0767 28.7808 40.2584 28.4241C40.44 28.0674 40.7035 27.7585 41.0274 27.5224H41.029ZM37.5215 28.4985C37.3637 29.2072 37.3637 29.9418 37.5215 30.6505C35.924 30.7553 34.2212 30.8209 32.4791 30.8444L32.9035 28.3087C34.4989 28.3381 36.0528 28.401 37.5215 28.499V28.4985ZM30.2894 28.2956L29.8624 30.8471C29.5669 30.8439 29.2692 30.8413 28.9821 30.8366L27.0328 28.3643C28.0566 28.3265 29.1362 28.303 30.2894 28.2956ZM23.8834 28.5284L25.614 30.7244C21.2299 30.4964 18.1905 30.0146 16.5782 29.5711C18.9769 29.0052 21.4218 28.6553 23.8834 28.5258V28.5284ZM44.5664 77.148H17.3417C10.1983 69.1333 5.94885 58.967 5.26962 48.2669C6.6705 49.4789 8.46298 50.1464 10.3179 50.1468C12.2264 50.1521 14.0675 49.4432 15.477 48.1604C16.8896 49.4383 18.7288 50.1461 20.6362 50.1461C22.5437 50.1461 24.3828 49.4383 25.7954 48.1604C27.208 49.4383 29.0472 50.1461 30.9546 50.1461C32.8621 50.1461 34.7012 49.4383 36.1138 48.1604C37.5264 49.4383 39.3656 50.1461 41.273 50.1461C43.1805 50.1461 45.0196 49.4383 46.4322 48.1604C47.8417 49.4432 49.6828 50.1521 51.5914 50.1468C53.4463 50.1464 55.2387 49.4789 56.6396 48.2669C55.9614 58.9674 51.7119 69.1341 44.5675 77.1485L44.5664 77.148Z" fill="#CC9933"/>
<path d="M9.64795 58.2289C11.3809 64.0337 14.265 69.4327 18.1295 74.1059L20.122 72.4734C16.4762 68.0635 13.7548 62.9693 12.119 57.4923L9.64795 58.2289Z" fill="#CC9933"/>
<path d="M10.9453 52.4995L8.40332 52.9367C8.55652 53.8251 8.73583 54.7073 8.94127 55.5831L11.4522 54.998C11.2587 54.1708 11.0897 53.3379 10.9453 52.4995Z" fill="#CC9933"/>
<path d="M47.7216 33.4309C48.4868 33.4309 49.2349 33.2047 49.8712 32.7809C50.5075 32.357 51.0035 31.7546 51.2963 31.0498C51.5892 30.3449 51.6658 29.5694 51.5165 28.8211C51.3672 28.0729 50.9987 27.3856 50.4576 26.8461C49.9164 26.3067 49.227 25.9393 48.4764 25.7905C47.7259 25.6417 46.9479 25.718 46.2409 26.01C45.5338 26.3019 44.9295 26.7963 44.5044 27.4307C44.0792 28.065 43.8523 28.8108 43.8523 29.5737C43.8537 30.5962 44.2618 31.5766 44.9871 32.2996C45.7124 33.0227 46.6958 33.4296 47.7216 33.4309ZM47.7216 28.2877C47.9767 28.2877 48.2261 28.3631 48.4382 28.5044C48.6504 28.6457 48.8157 28.8466 48.9133 29.0816C49.0109 29.3165 49.0365 29.5751 48.9867 29.8245C48.9369 30.074 48.8141 30.3031 48.6337 30.4829C48.4533 30.6628 48.2234 30.7853 47.9732 30.8349C47.723 30.8845 47.4636 30.859 47.2279 30.7617C46.9922 30.6644 46.7908 30.4996 46.649 30.2881C46.5073 30.0766 46.4316 29.828 46.4316 29.5737C46.4322 29.2328 46.5683 28.906 46.8101 28.665C47.0519 28.4239 47.3796 28.2883 47.7216 28.2877Z" fill="#CC9933"/>
</svg>
