<svg width="80" height="80" viewBox="0 0 80 80" fill="none" xmlns="http://www.w3.org/2000/svg">
<path d="M54.4584 5.79896C54.3904 5.72626 54.3215 5.65409 54.2517 5.58245C54.1109 5.43087 53.9412 5.30883 53.7525 5.22349C53.5638 5.13816 53.3599 5.09124 53.1528 5.0855C52.9457 5.07976 52.7395 5.1153 52.5463 5.19005C52.3531 5.2648 52.1769 5.37725 52.0279 5.5208C51.8789 5.66435 51.7601 5.83612 51.6786 6.02603C51.5971 6.21593 51.5544 6.42016 51.5531 6.62673C51.5518 6.83329 51.5918 7.03805 51.6709 7.22897C51.75 7.4199 51.8666 7.59316 52.0137 7.73859C52.0709 7.79731 52.1275 7.85655 52.1836 7.91631C52.4678 8.20614 52.8546 8.37358 53.2611 8.38281C53.6675 8.39204 54.0615 8.24233 54.3587 7.9657C54.6559 7.68908 54.8327 7.30749 54.8514 6.90257C54.87 6.49765 54.7289 6.10153 54.4584 5.79896Z" fill="#CC9933"/>
<path d="M78.2419 68.2385H68.5929V65.2388C68.5852 61.4821 67.4213 57.8182 65.2584 54.7419C63.0955 51.6655 60.0378 49.3249 56.4982 48.0361L50.4061 45.8343C49.5709 45.53 48.8332 45.0073 48.2704 44.321C47.7076 43.6346 47.3404 42.81 47.2074 41.9334C50.214 40.2832 52.4681 37.5424 53.5019 34.2796H59.1022C61.2415 34.2694 63.2899 33.4165 64.801 31.9069C66.3121 30.3974 67.1634 28.3535 67.1693 26.2209C67.1752 24.0883 66.3352 22.0398 64.8325 20.5219C63.3297 19.0041 61.2861 18.14 59.1469 18.118V17.6587C59.1529 15.1288 58.5999 12.6286 57.5273 10.3357C57.353 9.96261 57.0371 9.67383 56.6492 9.53289C56.2613 9.39196 55.8331 9.41042 55.4588 9.58422C55.0846 9.75801 54.7949 10.0729 54.6535 10.4596C54.5122 10.8463 54.5307 11.2732 54.705 11.6463C55.5855 13.5292 56.0392 15.5823 56.0339 17.6598V31.1751H54.0772C54.0956 30.8915 54.1082 30.6058 54.1082 30.318V18.5594C54.1041 15.0458 52.7023 11.6773 50.2101 9.19278C47.7179 6.7083 44.339 5.31075 40.8145 5.30672H39.0981C35.5737 5.31089 32.1949 6.7085 29.7029 9.19297C27.2108 11.6774 25.809 15.0459 25.805 18.5594V30.3174C25.805 30.6058 25.8176 30.891 25.836 31.1746H23.8782V17.6572C23.8825 13.8737 25.3921 10.2463 28.0757 7.571C30.7593 4.89565 34.3979 3.39075 38.1931 3.38645H41.72C43.8642 3.38069 45.9818 3.85961 47.9136 4.78721C48.2845 4.95726 48.7076 4.97523 49.0916 4.83725C49.4757 4.69928 49.79 4.4164 49.9669 4.04958C50.1437 3.68275 50.1689 3.26135 50.037 2.87618C49.9052 2.49101 49.6268 2.1729 49.2619 1.99041C46.9097 0.860396 44.3311 0.276795 41.72 0.283504H38.1931C33.5727 0.288777 29.143 2.12091 25.8759 5.37796C22.6088 8.63501 20.771 13.051 20.7657 17.6572V18.1164C18.6266 18.1383 16.5829 19.0023 15.0801 20.5201C13.5773 22.0378 12.7372 24.0862 12.743 26.2188C12.7487 28.3514 13.5999 30.3953 15.1108 31.9049C16.6218 33.4146 18.6701 34.2676 20.8093 34.278H26.4097C27.4435 37.5408 29.6975 40.2816 32.7042 41.9319C32.571 42.808 32.2039 43.6323 31.6413 44.3183C31.0787 45.0043 30.3413 45.5269 29.5065 45.8311L23.4144 48.0329C19.8748 49.3218 16.8172 51.6625 14.6543 54.7388C12.4914 57.8151 11.3275 61.479 11.3197 65.2357V68.2385H1.6718C1.25912 68.2385 0.863338 68.4019 0.571529 68.6928C0.27972 68.9837 0.115784 69.3783 0.115784 69.7897V78.168C0.115784 78.5794 0.27972 78.974 0.571529 79.2649C0.863338 79.5558 1.25912 79.7192 1.6718 79.7192H78.2419C78.6546 79.7192 79.0503 79.5558 79.3421 79.2649C79.6339 78.974 79.7979 78.5794 79.7979 78.168V69.7908C79.7981 69.587 79.758 69.3851 79.6799 69.1967C79.6018 69.0084 79.4872 68.8372 79.3427 68.6931C79.1981 68.5489 79.0265 68.4345 78.8377 68.3565C78.6488 68.2785 78.4463 68.2384 78.2419 68.2385ZM59.148 21.2178C60.4473 21.2554 61.6807 21.7963 62.5864 22.7258C63.4921 23.6553 63.9987 24.9001 63.9987 26.1959C63.9987 27.4917 63.4921 28.7365 62.5864 29.666C61.6807 30.5955 60.4473 31.1364 59.148 31.174V21.2178ZM20.7662 31.1751C19.4669 31.1375 18.2335 30.5965 17.3278 29.6671C16.4221 28.7376 15.9155 27.4928 15.9155 26.197C15.9155 24.9011 16.4221 23.6564 17.3278 22.7269C18.2335 21.7974 19.4669 21.2564 20.7662 21.2188V31.1751ZM28.917 18.5599C28.9199 15.8689 29.9935 13.2889 31.9022 11.386C33.8108 9.48312 36.3988 8.41272 39.0981 8.40967H40.8156C43.5148 8.41272 46.1026 9.48304 48.0113 11.3858C49.92 13.2886 50.9936 15.8684 50.9967 18.5594V22.7533H50.9935C49.1597 22.7575 47.3646 22.2279 45.8286 21.2293C47.0514 20.367 48.1985 19.4024 49.2571 18.346C49.4056 18.2028 49.524 18.0316 49.6055 17.8424C49.6869 17.6531 49.7297 17.4496 49.7315 17.2437C49.7332 17.0377 49.6938 16.8335 49.6156 16.6429C49.5373 16.4523 49.4218 16.2792 49.2758 16.1335C49.1297 15.9879 48.956 15.8727 48.7649 15.7947C48.5737 15.7166 48.3689 15.6773 48.1623 15.679C47.9557 15.6807 47.7516 15.7233 47.5617 15.8044C47.3718 15.8856 47.2001 16.0036 47.0564 16.1516C44.9291 18.2839 42.3987 19.9744 39.6116 21.1253C36.8246 22.2762 33.8362 22.8647 30.8195 22.8565H28.917V18.5578V18.5599ZM28.917 30.318V25.9605H30.818C35.0504 25.9691 39.2207 24.9454 42.9653 22.9787C45.2191 24.846 48.0593 25.8647 50.9898 25.8567H50.9946V30.3174C50.9915 33.0079 49.9182 35.5874 48.0101 37.4901C46.102 39.3928 43.5149 40.4634 40.8161 40.4672H39.0986C36.3993 40.4642 33.8113 39.394 31.9025 37.4912C29.9938 35.5884 28.92 33.0085 28.917 30.3174V30.318ZM35.6385 43.113C36.7658 43.4165 37.9283 43.5704 39.096 43.5706H40.8135C41.9811 43.5705 43.1437 43.4166 44.271 43.113C44.7401 44.9994 45.876 46.6538 47.4703 47.7724C45.3631 49.527 42.7048 50.4882 39.9592 50.4882C37.2137 50.4882 34.5553 49.527 32.4481 47.7724C34.039 46.6522 35.1717 44.998 35.6385 43.113ZM14.4338 65.2394C14.4402 62.1196 15.4067 59.077 17.2029 56.5222C18.999 53.9675 21.5382 52.0237 24.4777 50.9534L29.3929 49.1752C29.4218 49.2093 29.4507 49.2423 29.4828 49.2743C32.2629 52.0397 36.0298 53.5928 39.9571 53.5928C43.8844 53.5928 47.6513 52.0397 50.4314 49.2743C50.4635 49.2423 50.4924 49.2093 50.5213 49.1752L55.4365 50.9534C58.3759 52.0238 60.9151 53.9676 62.7112 56.5223C64.5074 59.077 65.4739 62.1196 65.4804 65.2394V68.2385H59.6959C59.8901 67.5902 59.9296 66.9056 59.8114 66.2393C59.6931 65.573 59.4203 64.9435 59.0147 64.401C58.6091 63.8585 58.082 63.4179 57.4754 63.1145C56.8687 62.811 56.1993 62.6531 55.5206 62.6533H45.4042C44.9914 62.6533 44.5956 62.8168 44.3037 63.1077C44.0119 63.3987 43.8479 63.7933 43.8479 64.2048C43.8479 64.6163 44.0119 65.0109 44.3037 65.3018C44.5956 65.5928 44.9914 65.7563 45.4042 65.7563H55.5201C55.8459 65.7629 56.156 65.8966 56.384 66.1287C56.612 66.3607 56.7397 66.6726 56.7397 66.9974C56.7397 67.3222 56.612 67.6341 56.384 67.8661C56.156 68.0981 55.8459 68.2318 55.5201 68.2385H24.3946C24.229 68.2419 24.0643 68.2123 23.9103 68.1515C23.7563 68.0906 23.616 67.9997 23.4976 67.8841C23.3793 67.7686 23.2852 67.6306 23.221 67.4783C23.1569 67.3261 23.1238 67.1626 23.1238 66.9974C23.1238 66.8322 23.1569 66.6687 23.221 66.5164C23.2852 66.3642 23.3793 66.2262 23.4976 66.1106C23.616 65.995 23.7563 65.9042 23.9103 65.8433C24.0643 65.7825 24.229 65.7529 24.3946 65.7563H32.7989C33.2116 65.7563 33.6075 65.5928 33.8993 65.3018C34.1912 65.0109 34.3551 64.6163 34.3551 64.2048C34.3551 63.7933 34.1912 63.3987 33.8993 63.1077C33.6075 62.8168 33.2116 62.6533 32.7989 62.6533H24.3946C23.7159 62.6531 23.0465 62.811 22.4399 63.1145C21.8332 63.4179 21.3061 63.8585 20.9005 64.401C20.495 64.9435 20.2222 65.573 20.1039 66.2393C19.9856 66.9056 20.0251 67.5902 20.2193 68.2385H14.4349L14.4338 65.2394ZM76.6859 76.6153H3.22833V71.342H76.6853V76.6168L76.6859 76.6153Z" fill="#CC9933"/>
<path d="M41.0496 63.1083C40.795 62.8547 40.4602 62.697 40.102 62.6619C39.7439 62.6268 39.3847 62.7166 39.0855 62.916C38.7864 63.1154 38.5658 63.412 38.4614 63.7553C38.357 64.0987 38.3753 64.4674 38.5131 64.7988C38.6508 65.1303 38.8996 65.4038 39.217 65.5728C39.5344 65.7419 39.9007 65.796 40.2537 65.726C40.6066 65.656 40.9242 65.4661 41.1525 65.1888C41.3807 64.9114 41.5055 64.5638 41.5055 64.205C41.504 63.7939 41.3403 63.3999 41.0496 63.1083Z" fill="#CC9933"/>
<path d="M17.1709 35.1142C16.9815 34.9695 16.7613 34.87 16.5272 34.8236C16.2932 34.7771 16.0516 34.7849 15.821 34.8463L6.04635 37.4544C5.71479 37.5422 5.42162 37.7367 5.21241 38.0078C5.0032 38.2788 4.88967 38.6111 4.88946 38.9531V44.51C4.23191 44.4112 3.56023 44.4692 2.92951 44.6792C2.29879 44.8893 1.727 45.2454 1.26104 45.7184C0.488842 46.4435 0.0361732 47.444 0.00207521 48.501C-0.0320228 49.558 0.355226 50.5855 1.0791 51.3586C1.42939 51.7044 1.84492 51.9777 2.3017 52.1626C2.75849 52.3475 3.24748 52.4404 3.74046 52.4359C4.83448 52.4227 5.88257 51.9955 6.67239 51.2407C7.46221 50.4859 7.9347 49.4601 7.99413 48.371C7.99413 48.3642 7.99413 48.3574 7.99413 48.3505C7.99413 48.3437 7.99413 48.3269 7.99413 48.3154C7.99413 48.2808 7.99939 48.2462 7.99939 48.2106V40.1442L14.6625 38.366V42.0687C14.0049 41.9699 13.3332 42.028 12.7025 42.2381C12.0718 42.4483 11.5 42.8045 11.0341 43.2775C10.2828 44.0159 9.83306 45.006 9.77205 46.056C9.74085 46.582 9.82072 47.1087 10.0065 47.602C10.1923 48.0953 10.4798 48.5443 10.8506 48.9199C11.2008 49.2658 11.6163 49.5391 12.0731 49.7241C12.5299 49.9091 13.0189 50.0021 13.512 49.9977C14.5885 49.984 15.6211 49.5698 16.4071 48.8363C17.1931 48.1027 17.6757 47.1029 17.7604 46.0329C17.7688 45.9691 17.7732 45.9048 17.7735 45.8405V36.3451C17.7742 36.1076 17.7203 35.8732 17.6158 35.6598C17.5113 35.4464 17.3591 35.2597 17.1709 35.1142ZM4.88946 48.1613C4.8884 48.3147 4.85649 48.4664 4.79561 48.6073C4.73474 48.7482 4.64613 48.8755 4.53504 48.9817C4.3877 49.1649 4.17611 49.2855 3.94302 49.3192C3.70994 49.3528 3.47272 49.297 3.27929 49.1631C3.14492 48.9703 3.08897 48.7338 3.12274 48.5014C3.15651 48.269 3.27749 48.0581 3.46123 47.9112C3.67021 47.6945 3.95551 47.5672 4.25686 47.5563C4.34122 47.5534 4.42533 47.5671 4.50431 47.5968C4.5833 47.6265 4.65558 47.6716 4.71698 47.7293C4.82536 47.8425 4.88695 47.9923 4.88946 48.1487V48.1629V48.1613ZM14.6657 45.7336C14.663 45.8849 14.6303 46.0342 14.5696 46.1729C14.5089 46.3116 14.4212 46.437 14.3118 46.5419C14.1645 46.7252 13.9529 46.8459 13.7198 46.8796C13.4867 46.9132 13.2494 46.8574 13.056 46.7233C12.9934 46.6556 12.9458 46.5756 12.9164 46.4883C12.8869 46.401 12.8763 46.3086 12.8851 46.2169C12.9132 45.9269 13.0444 45.6565 13.255 45.4546C13.4657 45.2527 13.7418 45.1326 14.0336 45.116C14.118 45.1131 14.2021 45.1268 14.2811 45.1565C14.36 45.1862 14.4323 45.2313 14.4937 45.289C14.6006 45.4008 14.6619 45.5482 14.6657 45.7026V45.7336Z" fill="#CC9933"/>
<path d="M11.9654 10.105C11.8203 9.91389 11.6327 9.75892 11.4173 9.65223C11.202 9.54554 10.9648 9.49003 10.7244 9.49006H8.62834L9.70319 6.374C9.76965 6.18124 9.79739 5.97731 9.7848 5.77387C9.77221 5.57042 9.71955 5.37144 9.62983 5.18828C9.5401 5.00512 9.41507 4.84138 9.26186 4.70639C9.10866 4.57141 8.93029 4.46783 8.73693 4.40156C8.54358 4.3353 8.33902 4.30766 8.13494 4.32021C7.93087 4.33275 7.73127 4.38525 7.54755 4.4747C7.36383 4.56415 7.19958 4.6888 7.06418 4.84153C6.92877 4.99426 6.82487 5.17209 6.75841 5.36485L4.97576 10.538C4.89507 10.7717 4.87157 11.0213 4.90722 11.2658C4.94286 11.5104 5.03661 11.743 5.18067 11.9442C5.32472 12.1453 5.51491 12.3092 5.73538 12.4223C5.95585 12.5353 6.20023 12.5942 6.44815 12.5941H8.66883L7.69127 16.0482C7.57914 16.4445 7.6295 16.8689 7.83127 17.2282C8.03304 17.5874 8.36969 17.852 8.76717 17.9638C9.16464 18.0756 9.59038 18.0254 9.95073 17.8242C10.3111 17.6231 10.5765 17.2875 10.6886 16.8912L12.2247 11.4643C12.2899 11.2332 12.3004 10.9901 12.2554 10.7543C12.2104 10.5184 12.1112 10.2961 11.9654 10.105Z" fill="#CC9933"/>
<path d="M75.6505 41.2137C75.5054 41.0226 75.3178 40.8676 75.1025 40.7609C74.8871 40.6542 74.65 40.5987 74.4095 40.5988H72.3135L73.3883 37.4822C73.5225 37.0929 73.4961 36.6663 73.3149 36.2964C73.1337 35.9265 72.8125 35.6435 72.422 35.5097C72.0315 35.3759 71.6037 35.4022 71.2327 35.5829C70.8616 35.7635 70.5778 36.0837 70.4435 36.473L68.6593 41.6451C68.5786 41.8789 68.5551 42.1284 68.5907 42.373C68.6264 42.6176 68.7201 42.8501 68.8642 43.0513C69.0082 43.2525 69.1984 43.4164 69.4189 43.5294C69.6394 43.6425 69.8838 43.7014 70.1317 43.7012H72.3524L71.3748 47.1549C71.3193 47.3511 71.3031 47.5563 71.3271 47.7587C71.3511 47.9612 71.4149 48.1569 71.5148 48.3348C71.6147 48.5127 71.7488 48.6692 71.9094 48.7954C72.0699 48.9216 72.2539 49.0151 72.4507 49.0705C72.6475 49.1258 72.8533 49.142 73.0564 49.118C73.2595 49.0941 73.4558 49.0305 73.6343 48.9309C73.8127 48.8313 73.9697 48.6976 74.0963 48.5375C74.2229 48.3774 74.3167 48.1941 74.3722 47.9979L75.9082 42.5709C75.9733 42.3402 75.9839 42.0976 75.9392 41.8622C75.8945 41.6267 75.7957 41.4047 75.6505 41.2137Z" fill="#CC9933"/>
<path d="M75.9308 1.56367C74.8832 1.06955 73.7975 0.660198 72.6841 0.339584C72.4702 0.280649 72.2461 0.268093 72.0268 0.302758C71.8076 0.337424 71.5984 0.418507 71.4132 0.54055C71.2281 0.662593 71.0713 0.822764 70.9535 1.01028C70.8356 1.19779 70.7594 1.4083 70.73 1.62763C70.7151 1.69647 70.71 1.76706 70.7148 1.83733V10.9721C69.9506 10.8051 69.1563 10.8346 68.4067 11.0578C67.6571 11.281 66.9767 11.6906 66.4296 12.2481C64.6574 14.0153 64.5628 16.7954 66.2192 18.4462C66.6028 18.8249 67.0578 19.1241 67.558 19.3265C68.0582 19.5288 68.5937 19.6304 69.1335 19.6252C70.392 19.6087 71.5926 19.0957 72.4724 18.1985C73.3522 17.3013 73.8394 16.093 73.8274 14.8384V8.9769C74.0508 9.06969 74.2801 9.16982 74.511 9.27833C76.2495 10.1003 76.667 10.7509 76.687 10.8825C76.687 11.294 76.8509 11.6886 77.1428 11.9796C77.4347 12.2705 77.8305 12.434 78.2432 12.434C78.656 12.434 79.0518 12.2705 79.3437 11.9796C79.6356 11.6886 79.7995 11.294 79.7995 10.8825V5.92794C79.7985 4.26349 78.4975 2.79511 75.9308 1.56367ZM70.2347 16.041C70.0166 16.301 69.7067 16.4676 69.369 16.5067C69.0313 16.5457 68.6914 16.4541 68.4194 16.2507C68.2155 15.9795 68.1237 15.6407 68.1628 15.3041C68.202 14.9674 68.3691 14.6585 68.6298 14.441C68.9206 14.1427 69.3169 13.9696 69.7341 13.9587C69.8648 13.9547 69.9949 13.9766 70.1171 14.0231C70.2392 14.0696 70.3509 14.1399 70.4456 14.2297C70.6069 14.3963 70.7023 14.6155 70.7143 14.8468V14.895C70.7143 14.9133 70.7143 14.9312 70.7169 14.9474C70.7045 15.3605 70.5316 15.7526 70.2347 16.041ZM76.6859 6.90564C76.4482 6.77353 76.1969 6.64387 75.9318 6.51666C75.247 6.19153 74.5448 5.90417 73.8284 5.65586V4.02339C74.0514 4.11618 74.2817 4.21683 74.512 4.32535C76.2547 5.14945 76.6717 5.80108 76.688 5.92742V6.90564H76.6859Z" fill="#CC9933"/>
<path d="M46.3623 28.7689C46.1465 28.4182 45.7998 28.1673 45.3985 28.0713C44.9971 27.9754 44.574 28.0423 44.2221 28.2573L44.1222 28.3186C43.9447 28.4242 43.7902 28.5638 43.6675 28.7295C43.5448 28.8952 43.4564 29.0836 43.4075 29.2836C43.3585 29.4837 43.35 29.6915 43.3825 29.8949C43.4149 30.0983 43.4877 30.2932 43.5965 30.4683C43.7052 30.6434 43.8479 30.7951 44.0161 30.9146C44.1843 31.0342 44.3747 31.1192 44.5762 31.1646C44.7777 31.2101 44.9863 31.2151 45.1897 31.1793C45.3932 31.1436 45.5875 31.0679 45.7613 30.9565L45.8486 30.9041C46.023 30.7976 46.1747 30.6579 46.295 30.4929C46.4152 30.328 46.5017 30.141 46.5494 29.9427C46.5971 29.7444 46.6052 29.5387 46.5731 29.3373C46.541 29.1359 46.4694 28.9427 46.3623 28.7689Z" fill="#CC9933"/>
<path d="M36.4163 28.7679C36.2002 28.4173 35.8532 28.1667 35.4517 28.0712C35.0503 27.9756 34.6272 28.0429 34.2755 28.2583L34.1772 28.3186C33.9998 28.4241 33.8452 28.5638 33.7225 28.7295C33.5998 28.8951 33.5114 29.0835 33.4625 29.2836C33.4136 29.4837 33.4051 29.6915 33.4375 29.8949C33.47 30.0983 33.5427 30.2932 33.6515 30.4683C33.7603 30.6433 33.903 30.7951 34.0712 30.9146C34.2394 31.0342 34.4298 31.1192 34.6313 31.1646C34.8328 31.2101 35.0413 31.2151 35.2448 31.1793C35.4482 31.1436 35.6425 31.0679 35.8163 30.9565L35.9052 30.9041C36.0796 30.7974 36.2311 30.6575 36.3512 30.4923C36.4713 30.3272 36.5575 30.14 36.605 29.9416C36.6525 29.7432 36.6603 29.5374 36.6279 29.336C36.5955 29.1346 36.5236 28.9415 36.4163 28.7679Z" fill="#CC9933"/>
</svg>
