<svg width="26" height="21" viewBox="0 0 26 21" fill="none" xmlns="http://www.w3.org/2000/svg">
<path d="M25.6909 2.81857C24.7475 3.23239 23.7423 3.50669 22.6943 3.63988C23.7724 2.99615 24.5953 1.98457 24.9822 0.76529C23.977 1.36462 22.8671 1.78796 21.6843 2.02421C20.7298 1.00788 19.3694 0.378418 17.8853 0.378418C15.006 0.378418 12.6879 2.71551 12.6879 5.58058C12.6879 5.99282 12.7228 6.3892 12.8084 6.76656C8.48463 6.55569 4.65872 4.48338 2.08856 1.32657C1.63985 2.10507 1.37665 2.99615 1.37665 3.9554C1.37665 5.75657 2.30419 7.35321 3.68678 8.27758C2.8512 8.26173 2.03148 8.01914 1.33701 7.63703C1.33701 7.65288 1.33701 7.67349 1.33701 7.69411C1.33701 10.2215 3.13977 12.3207 5.50381 12.8043C5.08048 12.9201 4.61908 12.9755 4.14025 12.9755C3.80729 12.9755 3.47115 12.9565 3.15563 12.8868C3.82948 14.9464 5.74165 16.4606 8.01531 16.5097C6.24585 17.8939 3.99914 18.7279 1.56692 18.7279C1.14041 18.7279 0.731335 18.7089 0.322266 18.6565C2.62606 20.1422 5.35636 20.9905 8.30071 20.9905C17.871 20.9905 23.1033 13.0627 23.1033 6.19101C23.1033 5.96111 23.0954 5.73913 23.0843 5.51874C24.1165 4.78622 24.9838 3.87137 25.6909 2.81857Z" fill="#E2AB3D"/>
</svg>
