<svg width="28" height="20" viewBox="0 0 28 20" fill="none" xmlns="http://www.w3.org/2000/svg">
<path d="M27.4036 16.678C27.0812 17.8766 26.1361 18.8216 24.9376 19.1443C22.748 19.7434 13.9897 19.7434 13.9897 19.7434C13.9897 19.7434 5.23176 19.7434 3.04223 19.167C1.86677 18.8446 0.89863 17.8765 0.576202 16.678C0 14.4886 0 9.94814 0 9.94814C0 9.94814 0 5.3848 0.576202 3.21832C0.898971 2.01981 1.84371 1.0749 3.0424 0.752129C5.25481 0.152872 13.9901 0.152872 13.9901 0.152872C13.9901 0.152872 22.748 0.152872 24.9376 0.729245C26.1363 1.05184 27.0812 1.99675 27.4039 3.19527C27.98 5.3848 27.98 9.92509 27.98 9.92509C27.98 9.92509 28.003 14.4886 27.4036 16.678V16.678ZM11.2013 5.75351V14.1428L18.4842 9.94814L11.2013 5.75351Z" fill="#E2AB3D"/>
</svg>
